<svg id="kultur" xmlns="http://www.w3.org/2000/svg" xmlns:xlink="http://www.w3.org/1999/xlink" viewBox="0 0 200 200"><defs><clipPath id="clip-path"><circle id="ellipse" cx="100" cy="100" r="100" fill="none"/></clipPath></defs><title>map-kultur</title><g id="photo"><g clip-path="url(#clip-path)"><circle id="ellipse-2" data-name="ellipse" cx="100" cy="100" r="100" fill="#f3dda3"/><g id="photo-2" data-name="photo"><path d="M29.993,114.5515a44.3455,44.3455,0,0,1,19.3829-36.68H2.4615a100.23,100.23,0,0,0,12.46,74.6931H51.4438A44.37,44.37,0,0,1,29.993,114.5515Z" fill="#717272"/><path d="M118.79,114.5515a44.3691,44.3691,0,0,1-21.4533,38.0134H155.26V77.8718H99.403A44.3447,44.3447,0,0,1,118.79,114.5515Z" fill="#717272"/><path d="M155.26,157.039v-4.4741H97.3367a44.431,44.431,0,0,1-45.8929,0H14.9213A100.463,100.463,0,0,0,31.5465,172.89H139.4088A15.8977,15.8977,0,0,0,155.26,157.039Z" fill="#b4b5b5"/><path d="M140.2175,51.5494h-9.401V43.0873H112.0026v8.4621h-9.8705V27.5714H53.7046v23.978H35.838V43.0873H17.7728A99.4665,99.4665,0,0,0,2.4615,77.8718H49.3759a44.395,44.395,0,0,1,50.0271,0H155.26V66.5955A15.044,15.044,0,0,0,140.2175,51.5494ZM62.0037,35.2341H93.431V51.0633H62.0037Zm75.253,33.8748a3.9689,3.9689,0,0,1-3.9689,3.9689H117.9957a3.9688,3.9688,0,0,1-3.9688-3.9689V64.7432a3.9688,3.9688,0,0,1,3.9688-3.9689h15.2921a3.9689,3.9689,0,0,1,3.9689,3.9689Z" fill="#b4b5b5"/><path d="M36.4055,114.5527A37.987,37.987,0,1,0,84.2676,77.8718H64.51A38.0021,38.0021,0,0,0,36.4055,114.5527ZM92.3108,88.82a4.0039,4.0039,0,1,1-4.0039,4.0038A4.0038,4.0038,0,0,1,92.3108,88.82Z" fill="#717272"/><path d="M74.3858,76.5659A37.986,37.986,0,0,0,64.51,77.8718H84.2676A38.0239,38.0239,0,0,0,74.3858,76.5659Z" fill="#717272"/><rect x="114.0269" y="60.7743" width="23.2299" height="12.3035" rx="3.9689" fill="#fff"/><path d="M74.3923,154.3468a39.7843,39.7843,0,0,1-11.8087-1.7819h-11.14a44.431,44.431,0,0,0,45.8929,0H86.2011A39.785,39.785,0,0,1,74.3923,154.3468Z" fill="#fff"/><path d="M74.3923,154.3468a39.785,39.785,0,0,0,11.8088-1.7819H62.5836A39.7843,39.7843,0,0,0,74.3923,154.3468Z" fill="#fff"/><path d="M99.403,77.8718a44.3992,44.3992,0,1,0-47.9592,74.6931H97.3367A44.3987,44.3987,0,0,0,99.403,77.8718ZM74.3858,152.5336a37.9835,37.9835,0,1,1,37.9936-37.9809A37.9793,37.9793,0,0,1,74.3858,152.5336Z" fill="#fff"/><circle cx="92.3108" cy="92.8237" r="4.0038" fill="#fff"/><rect x="62.0037" y="35.2341" width="31.4273" height="15.8292" fill="#fff"/></g></g></g></svg>