<svg id="svg2" xmlns="http://www.w3.org/2000/svg" viewBox="0 0 389.8336 363.7257"><title>map-basic</title><g id="layer1"><path id="path8731" d="M304.7707,321.8125c-.7393.0527-1.166,1.1973-1.3125,1.9688a11.6414,11.6414,0,0,0-.6562,4.0625c.4375,3.7216,1.46,8.4492,4,11.7812a9.8771,9.8771,0,0,1,1.5312,5.1563c0,3.3535,1.9043,8.7793,3.75,10.625a29.181,29.181,0,0,1,2.9375,4.0312c1.3232,2.1406,2.52,3.0029,4.5,3.25,5.2041.6494,4.4609-.1807,5.625-.6875,1.0293-.4482.5674-1.1094,2.25-.6875,1.9785.4961,2.169.3506,1.75-1.25-.26-.9932-.124-1.8125.2813-1.8125s.2373-2.5312,1.0312-2.5312a1.7619,1.7619,0,0,1,1.625.9687,2.4,2.4,0,0,0,1.8438,1.2188c1.3144.1933,1.4677-.24,1.0937-3.0313-.3135-2.3359-.0615-2.8965.4063-3.6875a4.7623,4.7623,0,0,0,.5625-3.5,4.9776,4.9776,0,0,1,.1875-2.9062c.4375-.7149,1.3.3906,1.4375,0,.5752-1.6309.8271-.1934.7187-7.4688-.1318-8.9121-.2685-9.6426-2.0312-10.8125-1.2129-.8047-2.6329.625-3.5313.625a2.8024,2.8024,0,0,0-2.1562.875c-.2911.4707-4.0079.7246-6.625,1.625-5.2227,1.7969-6.15,1.627-12.7188-2.4062a15.7136,15.7136,0,0,0-3.5937-1.875c-.1319.0957-.7588-.3516-1.4063-1-.8789-.8789.1-1.4893-.6562-2.1563A1.1886,1.1886,0,0,0,304.7707,321.8125Z" transform="translate(0.4 0.4)" fill="#fff" stroke="#fff" stroke-linejoin="round" stroke-width="0.8"/><path id="path8729" d="M296.427,311.3125c-.74.1231-.6075.91-.625,2.4688-.0069.6132-.55,1.625-.4063,2.3437.3369,1.6856.8848,2.32,1.7188,2,.71-.2725.6669-1.7783.625-3.3125-.044-1.584-.1231-3.1914-.875-3.4375a.8045.8045,0,0,0-.4375-.0625Zm38.1875.375c-.6172,0-.9688,1.8125-.9688,1.8125-.2383.4463.1455,1.3125-.0937,2.1875-.3008,1.1016-1.128,2.1992-.3438,2.0625,1.2149-.2109,1.6885.252,1.875,1.8125a19.7271,19.7271,0,0,0,.6563,3.1875c.5263,1.5547,3.2207.9,3.5625-.875.1836-.9541-.2491-1.4609-1.25-1.4687-1.0332-.0088-1.1827-.2227-.5-.6563a2.9325,2.9325,0,0,0,.8437-2.4687c-.0752-.9942-.4053-1.65-.75-1.4375s-1.1562-.6231-1.8125-1.875C335.8332,313.9688,335.384,311.6875,334.6145,311.6875Z" transform="translate(0.4 0.4)" fill="#fff" stroke="#fff" stroke-linejoin="round" stroke-width="0.8"/><path id="path8727" d="M235.1457,262.6875a.6832.6832,0,0,0-.1875.0313c-.5781.1162-2.5869.51-4.4375.875-4.4394.8779-5.6328,1.8769-4.5,3.6875,1.082,1.7314,8.8672,1.8994,9.9063.2187a2.5724,2.5724,0,0,1,2.2812-.9062c2.6563.2832,2.3936-.086,1.375-1.3125a1.637,1.637,0,0,0-1.9375-.6563c-1.1094.29-1.6562.0508-1.6562-.8125A1.0234,1.0234,0,0,0,235.1457,262.6875Z" transform="translate(0.4 0.4)" fill="#fff" stroke="#fff" stroke-linejoin="round" stroke-width="0.8"/><path id="path8725" d="M254.552,57.5313c-.3623.0493-.751.1738-1.125.1875-.8526.0312-1.625-.2461-2.3125.4062a5.8835,5.8835,0,0,0-.875,2.0938c-.1758,1.2558,1.6191.4443,2.625.125,2.0048-1.127,3.0527-2.1656,2.5937-2.625A1.0437,1.0437,0,0,0,254.552,57.5313Z" transform="translate(0.4 0.4)" fill="#fff" stroke="#fff" stroke-linejoin="round" stroke-width="0.8"/><path id="path8723" d="M166.99,6.125a2.9435,2.9435,0,0,0-2.5,3.125c0,.8687-.3809,1.5938-.8438,1.5938a.7864.7864,0,0,0-.8437.7187c0,.4038,1.7627.77,3.9062.8125s3.94-.31,4.1875-.0625c.87.87,2.9736.3482,4.75-1.4687,2.46-2.5166,2.6216-2.61,1.1875-3.7188-1.1528-.8906-2.2314-.9927-4.4687-.375-2.1089.582-3.2647.5576-4.125-.1562A1.9325,1.9325,0,0,0,166.99,6.125Z" transform="translate(0.4 0.4)" fill="#fff" stroke="#fff" stroke-linejoin="round" stroke-width="0.8"/><path id="path8721" d="M227.2707,4.5a2.5551,2.5551,0,0,0-.6875.875c-.4521.793-1.7012,1.2456-2.4062,1.9688-2.8965,3.5224-1.4512,2.4658-1.125,3.5.4375,0,.8007-.94,1.6875-1.5625.4492-.316,1.1455-1.4722,1.6562-1.3438,1.4873.3745,1.1738-2.3647,1.1563-3.125C227.5441,4.49,227.4426,4.3984,227.2707,4.5Z" transform="translate(0.4 0.4)" fill="#fff" stroke="#fff" stroke-linejoin="round" stroke-width="0.8"/><path id="path8744" d="M346.8332,257.4688l-.25.0625-1.5625,1.2187-1.0937.75-.0625.0938-.0938.125-.0625.0937v.2813l.0313.0625v.0937l-.0313.0938-.125.3437-.0312.0938-.0313.2812-.125.5625v.1563l.0313.5.0937.375v.125l-.0312.1562-.0625.375v.25l.1562.125.0313.0625v.0625l-.0313.125.0313.0938v.0937l.0312.0625.0313.0625.3125.3125.0625.0313.0312.0312h.125l.0313-.0312.0312-.125.0625-.0313.0313-.0625h.125l.0312.0625.0313.0938.0312.25.0625.6562.0625.25.1563.3438.0625.0937.0312.0313.0625.0312.0938.0625.5625.1875.2187.1563.0625.0312h.0938l.0625-.0312.0312-.0625.0313-.0625.0625-.1875.0625-.0938v-.0625l.0625-.0312.0312-.0313L346.49,266l.0312-.0625.0313-.0312.0312-.0625.0313-.1563v-.2812l-.0938-.4688V264.75l.0938-.3437v-.1875l-.0625-.3438-.125-.6562V263l.0312-.125.0938-.0937.25-.125.0625-.125v-.0625l.0312-.0938.125-.3437.0313-.125v-.0938l-.0313-.125v-.0625l-.0625-.0625-.0312-.1562v-.0313l.0312-.0625.0625-.125v-.0625l-.0312-.0625-.0313-.0937v-.0313l.0313-.0625.0625-.0312.0312-.0313.0625-.0937.0625-.0938.1563-.2812.0312-.0625.0938-.0625.0312-.0313h.125l.1563.125h.0312l.0938-.0312.0312-.0313.0313-.125.1562-.1562.0313-.0313.0937-.0312.6875.125h.1563l.1562-.125.0938-.0938.125-.125v-.0625l-.0625-.0312-.4688-.25-.2187-.0938h-.0625l-.125-.0312L348.0832,259l-.0937-.0625-.0313-.0625v-.2187l-.0312-.0938-.0313-.0312h-.0937l-.0938-.0313-.125-.0312-.0625-.0625-.0625-.0313V258l-.0312-.0625-.0313-.0625-.0625-.0312Z" transform="translate(0.4 0.4)" fill="#fff" stroke="#fff" stroke-linejoin="round" stroke-width="0.8"/><path id="path8752" d="M268.7707,188.1563v56.2812l.2188.375.2187.1563h.8438l.25.0625.125.0937.0937.0938.0625.0625h.1875l.0625-.0313.125-.125.0625-.0312.0625.0312.125.0625h.0313l.0937.0625.0625.0938.125.125.125.0312.0938.0625.125.25.0937.0938h.125l.2188-.0938.2187-.0312.1875.0937.0625.0313.2813.2187.125.0625.5.0313.0937.0625.0313.25.0625.125.0625.0625.0937.0312.2188-.0312.125-.1563.2187-.3437.25-.25.3438-.25.375-.2188.4062-.0625.2188.0313.4375.2187.25.0625h.4375l.1562-.0625.2188-.0937.0937.0625h.125l.0938.0312.125-.0312.5-.125.25.0312.25.25.1562.4063.125-.0313.1563-.0937.0625-.0313h.2187l.125.0625.0938.0938.1562.1875.0938.0625.2187-.0313.125.0313.0313.0312.0937.25.0313.2813.0312.25.0313.0937.0625.0625.0625.0313.125.2187.1875.2188.2187.1875.1563.0937.2187-.0312.1563-.0313.125.0313.0937.1875-.0625.2187-.1875.3438-.0625.25-.0312.2187.1562,1.0313.0938.1562.5937.5313.0938.125.0312.0937v.0625l-.0312.0938v.125l.0312.0937.2188.25.2812.625v.375l.0313.0625.0937.0938.125.0625.0625.0625.2188.0312h.1562l.125.0313.1875.1562.1563-.0625v-.125l-.0938-.1875-.0312-.2187V252.75h.0937l.1875-.0312.1563.0312h.125l.0625-.0625.0625-.1875h-.0313l-.0312-.0937v-.2813l.0625-.0625.0312-.0625.0313-.0625.0937-.5.0625-.2187.1875-.0938.125-.0312.2188-.0938.0937-.0312.0938.0312.0625.0938.125.125.2812.125.0625.0937.0625.0938.0313.25.0312.125.0938.1562.0312.0313.2813-.125.0625-.0625.0625-.0625h.0937l.3125.2812.1563.0938.0625-.0938.0625-.1562.1875.0625.3437.2187.9063.0938.125.0312.625.3438.0937.125.1875.0625.1563.0625.0937.1875.0625.25h.125l.1563-.0938h.1562l.25.2188.0625.0625-.0312.125-.0625.1875v.125l.0625.1562v.0938l-.0313.0937-.0625.0938-.0625.0625-.0312.0312-.0313.125.0313.125.0312.0625.0313.0938-.0313.125-.0937.2187v.2813l.0937.3125.0625.7187.1563.4688.1875.4375.2187.4062.0938.0938.1875.125.2187.125.8438.1875.1562.0937.1563.1875.0937.2188v.4375l-.0312.125-.0625.0625-.0313.0937.0313.1563.0625.125.0937.0937.5313.3438.7812.125.4063.2187.0937.0625.0313.0938.0625.0312.2187.0625.0938.0625.0937.0625.2188.2188.375.25.5937.25.1875.125.1563.375.2187.0937.4375.0625.3438.2188.4687.75.2813.3437.0937.0313.125.0312.0938.0625.0312.0625.0313.0625.1875.1875.1562.0938.125.1875.0938.0625.125.0312.2187.0313.125.0312.2813.2813.2187.4375.4375,1.1562.125.2188.1563.1875.375.125,1.0625,1.2812.1875.0938.4062.0312.1875.0625.125.1875.0938.0938v.0625l.0937-.0313.0938.0313.0312.0625v.125l.125.0937h.25l.4063-.0625.1875-.125.4062-.4375.1875-.0625.1875.0313.4375.2187.1875-.0312.0938-.1875-.0938-.25-.1562-.2188-.1563-.1875-.0937-.2187.0625-.2188.2187-.4062.0938-.6875.0312-.0938.1563-.1562.1562-.0625,1.0938-.2188h.9062l.3125.0938.4063.125.4062.0937.4063-.0312.7187-.4063.4063-.125h.4062l.3438.1875,1.6562,1.4063.4063.1875.4062.0312.6563-.1875.2187-.0312.1875.0312.1875.125.0625.0938.0313.125.0625.125.0937.0937.0625.0313.375-.0313.3125.0313.125.0937.1875.0938.625.0625.2188.0625.1562.0937.1563.0625.0625-.1875.0625-.0312.1562-.0313h.2188l.3125.125.6562.0938.1563-.0625.4375-.75.125-.0625h.0937l.0938.0625.0937.0312.125-.0312.0938-.0938.0937-.0312.0938.0312.1875.1563.0937.0312h.7813l.125.0938.3125.375.1562.125h.4688l.1875.0312.1562.25.125.0313h.25l.0938.0312.0937.0938.1563.1875.3125-.0938.25.125.25.1875.25.0313.0312-.0625.0625-.0938.0625-.0937.1563-.0625h.1562l.0938.0312.2812.1563-.0312.0625-.0313.3125.0313.4062.0937.2813.4063.4375.125.0937.8437-.25-.0625-.125-.125-.0312h-.2812L327.677,270l-.125-.0937-.125-.0938-.0625-.0937-.0625-.1563-.0313-.125-.0312-.3125-.0313-.0625L327.177,269l-.0313-.0937v-.0938l.0313-.0625.0937-.1562.0313-.0625.0312-.0938.25-.3125.0938-.0625h.0937l.0938.0938.125.125.1875.0625.2812-.0313.5-.125.0938-.0312h.0937l.1875.0312.1875.125.1563.1875.0625-.1875.125-.625.0937-.1562.0938-.1875.1562-.1563.125-.0937.0938-.0313.25.0313h.125l.1562-.125.0938-.0313.1562.0313.1875.125.125.1562.0625.2188.1563.0625,1.125-.4375.0312-.0313.1875-.1562.0625-.0313h.0938l.1875.0625h.0937l1.25.625.25.0313.125.0625.0313.0937.0625.125.0937.125.0938.0938.0937.0312.1875.0313.25.125.0625.125-.0625.2187-.0312.3125.0625.1875.3437.25.0938.25-.0938.4688-.0312.2812.0937.125.0313.1563.1875.6875.0937.1875.0313.0937.0312.1563-.0312.0625-.125.2187-.0313.125.0625.25.1875.1875.3438.25.0937.1563v.0937l.0625.25.0313.0625.0312.0625.0313.0625-.0313.5.0313.0938v.0937l.0625.0938.0625.0937.0937.0313h.125l.125.0625.1563.375.0312.125-.0312.2812-.0625.25-.125.2188-.6875,1.125v.0312l.125.0625.25.0625.5312.0313.25.125,2.0938,1.0625,2.0625,1.0312,2.0937,1.0625,2.0938,1.0625,2.0625,1.0313,2.0937,1.0625,2.0938,1.0625,1.0937.5625a10.8715,10.8715,0,0,0,.4375-3.9063c-.2744-7.6709,3.7744-21.3623,6.8125-23.0625a3.1118,3.1118,0,0,0,1.375-2.2812c.0479-.8487.1709-2.7188.25-4.1875a10.5017,10.5017,0,0,1,2.2188-5.1875,8.7278,8.7278,0,0,0,2.0937-4.125c0-2.0909,4.9336-11.1875,6.0625-11.1875,1.8115,0,5.7188-5.209,5.7188-7.625,0-1.3389.3564-2.4688.7812-2.4688,1.1631,0,4.3223-10.2607,3.7813-12.2812-.2588-.9688.3212-4.1368,1.2812-7.0625a34.6376,34.6376,0,0,0,1.7188-7.9063,13.103,13.103,0,0,1,1.2812-5.0312c1.3145-2.52,1.5742-7.8575.6563-9.5938l-.7813.625-.2812.125-.2813-.0937h-.125l-.7812.2187-.125-.0312h-.25l-.125.1875-.0313.125-.0625.0937-.0312.0625-.0313.0313-.0937.0312-.2188.3438-.125.125-.0937.0312h-.1563l-.0937-.0625-.0625-.0312h-.7188L383.49,181l-.0938-.0312-.25-.125-.2187-.0313-.1875-.0312-.125.0312h-.0625l-.0625.0313-.0938.125-.0625.0625-.25.0937h-.1562l-.1563.0625h-.0625l-.0937-.0312-.9063-.375-.0937-.0625-.2188-.25h-.125l-.0312.0312-.0313.0625-.0312.0313v.1562l-.0625.0625-.0938.0625-.0937.0313h-.0938l-.125-.0625-.0312-.0313-.0313-.0312-.0312-.0625-.0313-.0313V180.5l-.0312-.0937-.0625-.0938-.1563-.1562-.125-.0313h-.0625l-.0625.0313-.0625.0625-.3125.2812-.125.0938-.0625.0312-.125.4063-.0312.0312-.0313.0313-.0312.0625-.1563.0937-.3125.125-.4062.0313-.125.0312-.0938.0313-.2187.2187-.1875.1875-.0938.0938-.0625.0312-.0625.0313h-.0625L376.2082,182h-.125l-.0937.0313-1.0938.5625-.0937.125-.0625.0937-.2188.1563-.0937.0625h-.0938l-.0937.0312-.0938.0313h-.0312l-.0313.0625-.0312.0312-.0313.0625v.125l.25.2813.0625.125.0313.1875.0312.0937.0625.0938.0313.0625.2187.2187.2813.3125.0312.0938.0313.0937V185l-.0313.0313-.0937.1562-.0313.0313v.0625l-.0312.125-.0313.25v.4375l-.0625.0937-.0937.2813v.3437l-.0313.0625-.0312.0625-.0313.0625-.0312.0625-.0625.0313-.0313.0312H374.24l-.0625.0313-.0938.0312-.3125.1563h-.125l-.2187-.0625-.1875-.0625h-.125l-.0625.0312-.0625.0313-.0313.0625-.0625.1562-.0625.2813-.0625.0625-.0312.0312-.0625-.0312-.0313-.0313-.0937-.0625-.0313-.0312h-.0625l-.125-.0313h-.0625l-.0625-.0312-.0312-.0313-.0313-.0312-.3437-.6563h-.125l-.125.0938-.3438.25-.125.0625-.0937.0312-.0625.0313H370.74l-.0625.0312-.1563.125h-.0625l-.0625.0313h-.0937l-.0625.0312-.0625.0313-.0313.0312-.0625.1563-.2187.4062-.0625.2188v.375l-.0625.0625-.1875.125-.0938.0625-.1562.25-.0625.125-.0938.0625-.1875.125-.0625.0625v.0625l-.0312.0625-.1563.0625L368.49,190l-.0625.0313-.25-.0625-.0625-.125V189.5l-.0625-.0937-.1875-.0938-.0313-.0625-.0625-.4062v-.4063l-.0625-.0625v-.0937l.0625-.125L367.7082,188l-.125-.6875-.6562-.4375-.375-.2812-.1875-.125-.2188-.0313h-.375l-.2187-.0625-.1563-.0937-.0625-.1875v-.625l-.0937-.1875-.1875-.0938h-.25l-.1875-.0312-.1563-.125-.125-.1563-.1562-.125-.4063-.0937-.1875-.0938-.3437-.25-.4063-.125h-.4062l-.8438.2188-.4062.0312-1.25-.0312-.4063-.0938-.3125-.2187-.5312-.5938-.375-.3125-.2188-.0937-.2187.0937-.1875.0938-.1875.0312-.625-.0312-.125.0312-.5313.2188-.4375.0937-.375.1875H355.24l-.3125-.0312-.1875.0312-.4063.0938-.375-.0625-1.0625.0312-.1562.0313-.125.0312-.25.1563-.125-.125-.1563-.0625-.3437.0312-.1875-.0625-.0313-.125-.0625-.1875-.125-.125-.1875.0625-.875.125-.1562.125-.3438.7188-.1562.2187-.1875.0938-.1875.0312-1,.5-.0938.0313-.0312.0937-.0938.0938-.125.0937-.2187.0938-.0625.0937-.0313.125-.0937.0938-.1563.1562-.2187.125-.2188.0625-.2187.0313-.1875.0937-.0938.2188-.0937.5312-.0938.2188-.1562.1875-.2188.1562-.25.0938-.25.25H268.7707Z" transform="translate(0.4 0.4)" fill="#fff" stroke="#fff" stroke-linejoin="round" stroke-width="0.8"/><path id="path8742" d="M346.8332,257.4688l.5.375.0625.0312.0313.0625.0312.0625v.375l.0625.0313.0625.0625.125.0312.0938.0313h.0937l.0313.0312.0312.0938v.2187l.0313.0625.0937.0625.4688.2188.125.0312h.0625l.2187.0938.4688.25.0625.0312v.0625l-.125.125-.0938.0938-.1562.125h-.1563l-.6875-.125-.0937.0312-.0313.0313-.1562.1562-.0313.125-.0312.0313-.0938.0312h-.0312l-.1563-.125h-.125l-.0312.0313-.0938.0625-.0312.0625-.1563.2812-.0625.0938-.0625.0937-.0312.0313-.0625.0312-.0313.0625v.0313l.0313.0937.0312.0625v.0625l-.0625.125-.0312.0625v.0313l.0312.1562.0625.0625v.0625l.0313.125v.0938l-.0313.125-.125.3437-.0312.0938v.0625l-.0625.125-.25.125-.0938.0937-.0312.125v.2188l.125.6562.0625.3438v.1875l-.0938.3437v.1875l.0938.4688v.2812l-.0313.1563-.0312.0625-.0313.0312L346.49,266l-.0938.0625-.0312.0313-.0625.0312v.0625l-.0625.0938-.0625.1875-.0313.0625-.0312.0625-.0625.0312h-.0938l-.0625-.0312-.2187-.1563-.5625-.1875-.0938-.0625-.0625-.0312-.0312-.0313-.0625-.0937-.1563-.3438-.0625-.25-.0625-.6562-.0312-.25-.0313-.0938-.0312-.0625h-.125l-.0313.0625-.0625.0313-.0312.125-.0313.0312h-.125l-.0312-.0312-.0625-.0313-.3125-.3125-.0313-.0625-.0312-.0625v-.0937l-.0313-.0938.0313-.125V263.75l-.0313-.0625-.1562-.125v-.25l.0625-.375.0312-.1562v-.125l-.0937-.375-.0313-.5v-.1563l.125-.5625.0313-.2812.0312-.0938.125-.3437.0313-.0938v-.0937l-.0313-.0625v-.2813l.0625-.0937.0938-.125.0625-.0938,1.0937-.75,1.5625-1.2187Z" transform="translate(0.4 0.4)" fill="#fff" stroke="#fff" stroke-linejoin="round" stroke-width="0.8"/><path id="path8747" d="M354.0207,285.1563l-1.0937-.5625-2.0938-1.0625-2.0937-1.0625-2.0625-1.0313-2.0938-1.0625-2.0937-1.0625-2.0625-1.0312-2.0938-1.0625-.25-.125-.5312-.0313-.25-.0625-.125-.0625v-.0312l.6875-1.125.125-.2188.0625-.25.0312-.2812-.0312-.125-.1563-.375-.125-.0625h-.125l-.0937-.0313-.0625-.0937-.0625-.0938v-.0937l-.0313-.0938.0313-.5-.0313-.0625-.0312-.0625-.0313-.0625-.0625-.25v-.0937l-.0937-.1563-.3438-.25-.1875-.1875-.0625-.25.0313-.125.125-.2187.0312-.0625-.0312-.1563-.0313-.0937-.0937-.1875-.1875-.6875-.0313-.1563-.0937-.125.0312-.2812.0938-.4688-.0938-.25-.3437-.25-.0625-.1875.0312-.3125.0625-.2187-.0625-.125-.25-.125-.1875-.0313-.0937-.0312L335.3332,268l-.0937-.125-.0625-.125-.0313-.0937-.125-.0625-.25-.0313-1.25-.625h-.0937l-.1875-.0625h-.0938l-.0625.0313-.1875.1562-.0312.0313-1.125.4375-.1563-.0625-.0625-.2188-.125-.1562-.1875-.125-.1562-.0313-.0938.0313-.1562.125h-.125l-.25-.0313-.0938.0313-.125.0937-.1562.1563-.0938.1875-.0937.1562-.125.625-.0625.1875-.1563-.1875-.1875-.125-.1875-.0312h-.0937l-.0938.0312-.5.125-.2812.0313-.1875-.0625-.125-.125-.0938-.0938h-.0937l-.0938.0625-.25.3125-.0312.0938-.0313.0625-.0937.1562-.0313.0625v.0938l.0313.0937.0312.0625.0313.0625.0312.3125.0313.125.0625.1563.0625.0937.125.0938.125.0937.125.0313h.2812l.125.0312.0625.125-.8437.25-.125-.0937-.4063-.4375-.0937-.2813-.0313-.4062.0313-.3125.0312-.0625-.2812-.1563-.0938-.0312h-.1562l-.1563.0625-.0625.0937-.0625.0938-.0312.0625-.25-.0313-.25-.1875-.25-.125-.3125.0938-.1563-.1875-.0937-.0938-.0938-.0312h-.25l-.125-.0313-.1562-.25-.1875-.0312h-.4688l-.1562-.125-.3125-.375-.125-.0938h-.7813l-.0937-.0312-.1875-.1563-.0938-.0312-.0937.0312-.0938.0938-.125.0312-.0937-.0312-.0938-.0625h-.0937l-.125.0625-.4375.75-.1563.0625-.6562-.0938-.3125-.125h-.2188l-.1562.0313-.0625.0312-.0625.1875-.1563-.0625-.1562-.0937-.2188-.0625-.625-.0625-.1875-.0938-.125-.0937-.3125-.0313-.375.0313-.0625-.0313-.0937-.0937-.0625-.125-.0313-.125-.0625-.0938-.1875-.125-.1875-.0312-.2187.0312-.6563.1875-.4062-.0312-.4063-.1875L312.677,265.75l-.3438-.1875h-.4062l-.4063.125-.7187.4063-.4063.0312-.4062-.0937-.4063-.125-.3125-.0938h-.9062l-1.0938.2188-.1562.0625-.1563.1562-.0312.0938-.0938.6875-.2187.4062-.0625.2188.0937.2187.1563.1875.1562.2188.0938.25-.0938.1875-.1875.0312-.4375-.2187-.1875-.0313-.1875.0625L305.552,269l-.1875.125-.4063.0625h-.25l-.125-.0937v-.125l-.0312-.0625-.0938-.0313-.0937.0313v-.0625l-.0938-.0938-.125-.1875-.1875-.0625-.4062-.0312-.1875-.0938-1.0625-1.2812-.375-.125-.1563-.1875-.125-.2188-.4375-1.1562-.2187-.4375-.2813-.2813-.125-.0312-.2187-.0313-.125-.0312-.0938-.0625-.125-.1875-.1562-.0938-.1875-.1875L299.6457,264l-.0312-.0625-.0938-.0625-.125-.0312-.0937-.0313-.2813-.3437-.4687-.75-.3438-.2188-.4375-.0625-.2187-.0937-.1563-.375-.1875-.125-.5937-.25-.375-.25-.2188-.2188-.0937-.0625L295.8332,261l-.2187-.0625-.0625-.0312-.0313-.0938-.0937-.0625-.4063-.2187-.7812-.125-.5313-.3438-.0937-.0937-.0625-.125-.0313-.1563.0313-.0937.0625-.0625.0312-.125v-.4375l-.0937-.2188-.1563-.1875-.1562-.0937-.8438-.1875-.2187-.125-.1875-.125-.0938-.0938-.2187-.4062-.1875-.4375-.1563-.4688-.0625-.7187-.0937-.3125v-.2813l.0937-.2187.0313-.125-.0313-.0938-.0312-.0625-.0313-.125.0313-.125.0312-.0312.0625-.0625.0625-.0938.0313-.0937v-.0938l-.0625-.1562v-.125l.0625-.1875.0312-.125-.0625-.0625-.25-.2188H290.99l-.1563.0938h-.125l-.0625-.25-.0937-.1875-.1563-.0625-.1875-.0625-.0937-.125-.625-.3438-.125-.0312-.9063-.0938-.3437-.2187-.1875-.0625-.0625.1562-.0625.0938-.1563-.0938-.3125-.2812H287.24l-.0625.0625-.0625.0625-.2813.125-.0312-.0313-.0938-.1562-.0312-.125-.0313-.25-.0625-.0938-.0625-.0937-.2812-.125-.125-.125L286.052,251l-.0938-.0312-.0937.0312-.2188.0938-.125.0312-.1875.0938-.0625.2187-.0937.5-.0313.0625-.0312.0625-.0625.0625v.2813l.0312.0937h.0313l-.0625.1875-.0625.0625h-.125l-.1563-.0312-.1875.0312h-.0937v.0938l.0312.2187.0938.1875v.125l-.1563.0625-.1875-.1562-.125-.0313h-.1562l-.2188-.0312-.0625-.0625-.125-.0625L283.427,253l-.0313-.0625v-.375l-.2812-.625-.2188-.25-.0312-.0937v-.125l.0312-.0938v-.0625l-.0312-.0937-.0938-.125-.5937-.5313-.0938-.1562-.1562-1.0313.0312-.2187.0625-.25.1875-.3438.0625-.2187-.0937-.1875-.125-.0313-.1563.0313-.2187.0312-.1563-.0937-.2187-.1875-.1875-.2188-.125-.2187-.0625-.0313-.0625-.0625-.0313-.0937-.0312-.25-.0313-.2813-.0937-.25-.0313-.0312-.125-.0313-.2187.0313-.0938-.0625-.1562-.1875-.0938-.0938-.125-.0625h-.2187l-.0625.0313-.1563.0937-.125.0313-.1562-.4063-.25-.25-.25-.0312-.5.125-.125.0312-.0938-.0312h-.125l-.0937-.0625-.2188.0937-.1562.0625h-.4375l-.25-.0625-.4375-.2187-.2188-.0313-.4062.0625-.375.2188-.3438.25-.25.25-.2187.3437-.125.1563-.2188.0312-.0937-.0312-.0625-.0625-.0625-.125-.0313-.25-.0937-.0625-.5-.0313-.125-.0625-.2813-.2187-.0625-.0313-.1875-.0937-.2187.0312-.2188.0938h-.125l-.0937-.0938-.125-.25-.0938-.0625-.125-.0312-.125-.125-.0625-.0938-.0937-.0625h-.0313l-.125-.0625-.0625-.0312-.0625.0312-.125.125-.0625.0313h-.1875l-.0625-.0625-.0937-.0938-.125-.0937-.25-.0625h-.8438l-.2187-.1563-.2188-.375-.125-.1875-.1875-.1562V292.25h.0313v1.3125a8.4474,8.4474,0,0,1,1.6562,1.1875c2.2891,2.2891,4.1816,2.6856,4.7813,1.0313.3046-.8418.7314-.8418,2.1562,0a8.4308,8.4308,0,0,0,3.5625,1.0625,7.9141,7.9141,0,0,1,3.9063,1.6875,7.7517,7.7517,0,0,0,3.2812,1.6875,16.9089,16.9089,0,0,1,3.6875,1.6562c1.1377.6094,2.23.0889,5-2.4687,1.96-1.8086,4.3828-3.4209,5.375-3.5625,1.2705-.1817,1.8311-.8448,1.8438-2.2813.0224-2.5117,1.4306-3.1348,2.9687-1.2812.9951,1.1992.88,1.5869-.75,2.9062-2.0137,1.6309-1.3789,2.6094,1.9688,3.125,3.0273.4668,6.3183,2.26,6.7812,3.7188a1.31,1.31,0,0,0,1.625,1c.6426-.2461,1.6357.3164,2.2188,1.25,1.2285,1.9668,2.4062,1.6084,2.4062-.75,0-.8985.3584-1.6563.8125-1.6563s2.8242-2.0674,5.2188-4.5937c5.4892-5.7911,7.8613-6.8829,16.4687-7.625C350.1633,289.0781,353.0354,288.0391,354.0207,285.1563Z" transform="translate(0.4 0.4)" fill="#fff" stroke="#fff" stroke-linejoin="round" stroke-width="0.8"/><path id="path8754" d="M268.4582,292.25v1.3125c.01.0059.0215-.0059.0313,0V292.25Z" transform="translate(0.4 0.4)" fill="#fff" stroke="#fff" stroke-linejoin="round" stroke-width="0.8"/><path id="path8750" d="M239.9582,155.8438H153.5207v62.9687a60.5554,60.5554,0,0,1,12.375-1.4375,41.5072,41.5072,0,0,0,7.4688-.8125c1.2461-.4209,3.1152.3594,6.7187,2.7813,3.0513,2.0507,5.3374,3.04,5.875,2.5937,1.2095-1.0039,3.0855-.5879,5.8438,1.2188a11.65,11.65,0,0,0,5.125,1.5937,7.424,7.424,0,0,1,2.75.5313c.6875.3339,1.0937,1.1582,1.7812,1.6875.43.33,1.2246.2343,1.4375.8125.7129,1.9375-.6719,5.3086.0938,6.1875a4.3477,4.3477,0,0,0,2.6875,1.4687,3.5628,3.5628,0,0,1,3.4062,3.2813,7.2477,7.2477,0,0,0,2.0313,3.4062,12.1991,12.1991,0,0,1,2.5937,5.5c.3633,2.2227-1.2148,1.3691-1.625,2.0313-.5351.8652,3.0488,4.582,5,5.1875a18.4717,18.4717,0,0,1,2.9063,1.3437c1.1.6348,2.4082.0879,1.375-1.5625-.8252-1.3184-1.8125-4.0625-.6563-4.0625.4063,0,1.43-1.3281,2.3125-2.9687a11.5088,11.5088,0,0,1,5.5938-4.8125c3.081-1.4424,4.1718-2.5225,4.9375-4.8125,1.1972-3.5772,2.1279-3.7715,2.9687-4.8438.9883-1.2607.793-3.5488,1.4375-3.4062.9356.206,1.042,3.164,1.0625,4.5.01.6445-1.3652,1.8984-1.0937,2.9375.3144,1.2041-.1534,2.7451-1.3125,4.3125-1.2735,1.7216-1.9112,4.0253-2.1563,7.875-.3242,5.0986-.4512,5.4375-2.3437,5.4375a3.1635,3.1635,0,0,0-3,2.0937c-1.2178,2.6738-.6719,3.2119,2.1875,2.125a14.4606,14.4606,0,0,1,4.25-.8437c1.6767,0,2.07-.5567,2.5312-3.5938a23.66,23.66,0,0,1,1.4688-5.4687c.93-1.8789.916-1.8438,2.5312.8125,2.292,3.7685,2.959,8.6943.625,10.7187A3.6492,3.6492,0,0,0,241.49,263c0,.875,3.6269,1.0947,4.1875.1875.788-1.2754,5.0576,1.2852,7.4375,4.4375,2.6259,3.4785,4.5283,9.5957,3.3437,10.7813-1.1338,1.1337-.4521,4.4834,1.3125,6.4062.7764.8467,2.499,2.9219,3.8125,4.6563,1.6065,2.123,3.0322,3.1562,4.4063,3.1562a5.64,5.64,0,0,1,2.4687.9375V244.0938l.1875.1562.125.1875V155.8438H239.9582Z" transform="translate(0.4 0.4)" fill="#fff" stroke="#fff" stroke-linejoin="round" stroke-width="0.8"/><path id="path8759" d="M153.5207,155.8438V41.9688a12.0849,12.0849,0,0,1-1.7812-.25c-2.7261-.6919-3.5552-.5635-4.9375.6875-.9122.8252-1.6563,1.1-1.6563.5937s.2324-2.9434-.875-3.5625c-.9165-.5122-1.7739-1.8276-3.2812-3.5625s-3.4664-3.1562-4.3438-3.1562-1.5937-.3809-1.5937-.8438c0-1.8848-3.2-.7847-3.7188,1.2813-.2949,1.1757-.8838,1.9213-1.3125,1.6562s-1.3838-1.3315-1.7812-.4062c-.6182,1.4384-1.48,1.04-1.5313-.2188-.0644-1.6045-1.3262-1.9683-2.1562-.625-.2862.4629.72,1.6172.1562,2.8125-1.1435,2.4229-2.6284,1.42-2.1562-1.1562.1855-1.0113-2.399.5048-2.125,1.2187.622,1.6211-2.08,2.8325-3,1.3438-1.003-1.6231-1.8477.4-1.2188,2.9062.4019,1.6006.1875,2.125-.7812,2.125A2.2789,2.2789,0,0,0,113.6145,44.5c-.2959.9321-.834,1.5308-1.1875,1.3125s-1.1519.2842-2.5.6875-.2505,3.8731-.8438,9.5625c-.1763,1.69-1.63,1.2026-2.25-.75-.38-1.1973-2.3281-.0537-4.0625-.8437-1.6914-.77-2.501-.78-3.2187-.0625s-.5772,1.0869.5,1.5c1.3486.5175,1.8667.4961.375,2.0937-2.188,2.3433,1.7392,1.7485,2.6562,4.8125.1758.5879-1.7353,1.0269-2.0312,2.0625-.522,1.8262-.5708,1.8218-1.875-.625a21.3963,21.3963,0,0,0-2.3125-3.5625c-1.0728-1.23-.3448-2.0107.0625-2.625.9433-1.4219-.1783-.7256-1.6875-.75-1.4776-.0239-4.4058,4.0566-6.9063,7.7813-.5459.8134-.6387,3.3711-.1875,6.0312.1587.937,1.7471,1.8945,1.5313,2.7813-.5508,2.2636-4.9039,4.2182-5.2188,4.2187-.3018.0005-.9775,1.1543-1.4687,2.5625a16.2168,16.2168,0,0,1-7.6563,9.2188,34.2444,34.2444,0,0,1-14.5,3.4375c-2.33-.1006-3.39.3164-4.1875,1.5937-.7588,1.2149-1.957,1.6875-4.125,1.6875-1.7817,0-3.5351.5581-4.1875,1.3438-1.69,2.0366-4.8374,2.98-8.0625,2.375-1.9819-.3721-2.061-3.13-4.7812-1.7188-1.2027.624-2.6607,2.8975-4.3438,3.9375a45.5763,45.5763,0,0,0-5.625,4.2188,23.5236,23.5236,0,0,1-6.25,3.75,13.342,13.342,0,0,0-5.1875,3.5c-.7266.9975-1.0825,4.4687-1.9062,4.4687-.6167,0-1.1617-.5469-1.1563-2.4062.002-.5923.28-1.62.3438-2.4063.2651-3.27-1.3746-2.0679-3.3125,2.4375-1.4117,3.2817-1.6612,4.7744-1.0313,6.1563,1.0269,2.2539.4946,5.6777-1.5937,10.1562-1.9014,4.0772-1.9825,6.1543-.4063,9.3438.6475,1.31,1.8882,3.9194,2.7813,5.7812s2.1831,4.3233,2.875,5.4688a5.4253,5.4253,0,0,1,.6875,5l-.75,1.9062c-.2749.6777-.6885-1.4849-1.5-2.7812-.5591-.8936-1.4956-.6465-1.9688-1.7188s-.0522-1.37-.2812-1.7187c-2.0083-3.0621-3.5708-2.2647-1.8438,1.375A11.5625,11.5625,0,0,0,7.2082,158.5c1.0713.6621,1.042,3.75-.0312,3.75-.4566,0-1.3545-1.3184-2.0313-2.9375s-1.6123-2.9375-2.0625-2.9375-1.2466-1.35-1.7812-2.9687S-.57,152.4048.2707,154.5313a15.44,15.44,0,0,0,.8438,2.4375A42.8585,42.8585,0,0,0,5.7082,163.75c3.0693,3.6475,5.09,8.4111,4.9375,11.625-.083,1.7515.6924,3.625,2.4063,5.7813,1.3974,1.7578,2.5625,3.791,2.5625,4.5a5.1031,5.1031,0,0,0,1.3125,2.75c.8442.9336,1.5483,4.1543,2,8.9687.6635,7.0742,2.7553,13.7383,5.75,18.4688,1.3481,2.1289,1.9375,11.0351.7812,11.75-.4224.2617-.5132,2.0673-.2187,4.0312.854,5.6953-1.5972,9.3623-5.1563,7.875-.5933-.248-1.187.708-.9687,4,.2959,4.4629.4536,5.01,2.125,5.0938a10.0748,10.0748,0,0,1,6.9687,4.5c.4951.9257,3.7564,2.1933,4.375,2.8125.6924.6923,3.0894,1.1347,6.1875,1.125a39.4992,39.4992,0,0,1,7.4063.5937c1.4575.3711,2.4946-1.291,3.875-1.5937s2.4169-.7813,2.3125-1.0938c-.3956-1.1865,3.97-4.6269,6.0625-4.7812,3.8911-.2881,4.0859-.3829,4.5937-2.4063.5313-2.1152,3.7139-3.8008,7.25-3.8437,1.1567-.0137,5.42-.2032,9.4688-.4063,6.0708-.3047,12.1865.625,14.5.7188a21.6975,21.6975,0,0,0,6.1875-.5313,10.2038,10.2038,0,0,0,5.625-6.5625c.71-2.7559,1.9682-4.2168,3.6562-4.2187,1.5982-.002,10.769-4.6387,12.9688-6.5625,1.122-.98,3.0517-1.2657,7.5625-1.125,6.1279.1914,15.9091-2.3555,20.375-5.2813a10.7223,10.7223,0,0,1,2.9062-1.125V155.8438Z" transform="translate(0.4 0.4)" fill="#fff" stroke="#fff" stroke-linejoin="round" stroke-width="0.8"/><path id="path8757" d="M239.9582,58.6563a11.4317,11.4317,0,0,1-1.0312-.7188,35.7674,35.7674,0,0,0-5.25-3.8437c-1.5039-.8584-2.7188-2.06-2.7188-2.6875,0-1.7525-2.2969-3.7627-3-2.625-.4072.6587-.7949.5835-1.3125-.2188-.61-.9463-.9141-.9214-1.625.125-.748,1.1025-.9375,1.085-1.6875-.1875a16.616,16.616,0,0,0-4.5937-3.6562c-2.0645-1.2095-3.7813-2.6431-3.7813-3.1875s1.0684-2.3287,2.375-3.9375a22.5578,22.5578,0,0,0,2.9375-4.4375c.3672-.9956.3848-2.7349-.2187-3.0625a2.0173,2.0173,0,0,1-.625-2.875,3.5675,3.5675,0,0,1,3.25-.9063c2.0732.3994,3.9912-1.6582,4.0312-4.3125a5.4175,5.4175,0,0,1,1.7188-3.2812c1.3105-1.1861,1.4785-1.7725.7187-2.6875a2.95,2.95,0,0,0-2.5625-.7188c-.64.2456-.8047-.91-1.0625-1.8125-.2012-.7056-2.4053.8984-2.4687.75a5.77,5.77,0,0,0-2.4688.625c-2.7285,1.0371-5.0684-.957-5.2812-.8437-3.6387,1.93-3.9014,1.9677-4.6875.5625-.6036-1.0791-1.4532-1.3492-2.9688-.9688-2.0762.521-6.9687-1.06-6.9687-2.25,0-.3379-1.1963-.3857-2.6563-.0937A6.4515,6.4515,0,0,1,192.49,9.125c-.8125-1.16-.7354-1.623-1.8125-1.2812-1.3013.413-2.625.1513-2.625-1.5938,0-1.1875-.3155-1.6894-1.6875-1.3437a5.5924,5.5924,0,0,1-2.5625.6875c-3.5308-.1006-4.2193,1.102-1.9063,3.3125,1.0723,1.0244,4.188.2968,5.25,2.2812,1.1211,2.0947.564,4.2647-.875,3.375-.4507-.2788-1.4258-.0127-2.1562.5938-1.9,1.5766-6.8374,1.9692-8.125,1.0625-1.2915-.9092-4.3355-.3711-7.0938,2.3437-.7715.7593-3.5893,4.0581-4.625,5.0938-1.7153,1.7153.9424,2.7089.1563,3.6562A3.3189,3.3189,0,0,1,162.302,28.5c-.6285,0-1.4039,1.04-1.7188,2.3125a6.7827,6.7827,0,0,1-2.125,3.4063c-1.9165,1.3623-1.9712,3.2163-.1562,5.0312,1.2861,1.2861,1.2089,1.4849-.9688,2.375a7.574,7.574,0,0,1-3.8125.3438v113.875h86.4375V58.6563Zm-14-28.25c-.8926.0673-1.4453.4458-1.2187.8125s.7714.7187.2812.7187c-1.5019.4873-1.5615.8872-1.2812,2.1875-.044,1.3389.5781,1.9346,2.4687,2.3125,1.3916.2783,2.9063.0933,3.375-.375.5742-.5747.3711-.8437-.5937-.8437-1.5664,0-1.8975-1.2686-.5625-2.0938a1.87,1.87,0,0,0,.8437-1.375c0-.4629-.3809-.5986-.8437-.3125s-.8438.1489-.8438-.3125S226.8508,30.3389,225.9582,30.4063Z" transform="translate(0.4 0.4)" fill="#fff" stroke="#fff" stroke-linejoin="round" stroke-width="0.8"/><path id="path8719" d="M239.9582,58.6563v.125l.0313-.0938C239.9777,58.6787,239.97,58.665,239.9582,58.6563Z" transform="translate(0.4 0.4)" fill="#fff" stroke="#fff" stroke-linejoin="round" stroke-width="0.8"/><path id="path2469" d="M279.9582,0c-.624,0,.3047,1.7393-.4687,2.7188a28.87,28.87,0,0,0-.8438,4.2187,29.6645,29.6645,0,0,1-2.6562,7.3438c-2.2422,4.2876-2.1,3.25-1.0313,4.5312.5488.6577-.1875,1.5874-.1875,2.2813s.374.8046-.0937,1.0937-.7872,1.54-.7188,2.7813a13.0618,13.0618,0,0,1-.8437,4.6562c-.5284,1.311-.712,2.7871-.4063,3.2813.8252,1.3354,1.0518,12.622.2813,14.0937a20.8178,20.8178,0,0,0-1.0938,5.125c-.4658,4.2393-2.41,9.52-3.8437,10.4063a2.7654,2.7654,0,0,0-.9375,2.1562c0,2.0469-2.8731,4.7554-5.625,5.2813-2.7334.5224-9.919-3.2652-11.0938-5.8438-.2851-.6265-.7285-.51-1.1562-1.2187-.251.0356-.9278-1.0318-1.25-1.1563a28.8093,28.8093,0,0,0-4-1.0312,11.8047,11.8047,0,0,1-4-2.0313l-.0313.0938v97.0625h28.8125v32.3125h76.5625l.25-.25.25-.0938.2188-.1562.1562-.1875.0938-.2188.0937-.5312.0938-.2188.1875-.0937.2187-.0313.2188-.0625.2187-.125.1563-.1562.0937-.0938.0313-.125.0625-.0937.2187-.0938.125-.0937.0938-.0938.0312-.0937.0938-.0313,1-.5.1875-.0312.1875-.0938.1562-.2187.3438-.7188.1562-.125.875-.125.1875-.0625.125.125.0625.1875.0313.125.1875.0625.3437-.0312.1563.0625.125.125.25-.1563.125-.0312.1562-.0313,1.0625-.0312.375.0625.4063-.0938.1875-.0312.3125.0312h.1562l.375-.1875.4375-.0937.5313-.2188.125-.0312.625.0312.1875-.0312.1875-.0938.2187-.0937.2188.0937.375.3125.5312.5938.3125.2187.4063.0938,1.25.0312.4062-.0312.8438-.2188h.4062l.4063.125.3437.25.1875.0938.4063.0937.1562.125.125.1563.1563.125.1875.0312h.25l.1875.0938.0937.1875v.625l.0625.1875.1563.0937.2187.0625h.375l.2188.0313.1875.125.375.2812.6562.4375.125.6875.0625.1563-.0625.125v.0937l.0625.0625v.4063l.0625.4062.0313.0625.1875.0938.0625.0937v.3438l.0625.125.25.0625L368.49,190l.2187-.0937.1563-.0625.0312-.0625v-.0625l.0625-.0625.1875-.125.0938-.0625.0625-.125.1562-.25.0938-.0625.1875-.125.0625-.0625v-.375l.0625-.2188.2187-.4062.0625-.1563.0313-.0312.0625-.0313.0625-.0312h.0937l.0625-.0313h.0625l.1563-.125.0625-.0312h.1875l.0625-.0313.0937-.0312.125-.0625.3438-.25.125-.0938h.125l.3437.6563.0313.0312.0312.0313.0625.0312h.0625l.125.0313h.0625l.0313.0312.0937.0625.0313.0313.0625.0312.0312-.0312.0625-.0625.0625-.2813.0625-.1562.0313-.0625.0625-.0313.0625-.0312h.125l.1875.0625.2187.0625h.125l.3125-.1563.0938-.0312.0625-.0313h.2187l.0313-.0312.0625-.0313.0312-.0625.0313-.0625.0312-.0625.0313-.0625v-.3437l.0937-.2813.0625-.0937v-.4375l.0313-.25.0312-.125v-.0625l.0313-.0313.0937-.1562L375.052,185v-.0625l-.0313-.0937-.0312-.0938-.2813-.3125-.2187-.2187-.0313-.0625-.0625-.0938-.0312-.0937-.0313-.1875-.0625-.125-.25-.2813v-.125l.0313-.0625.0312-.0312.0313-.0625h.0312l.0938-.0313.0937-.0312h.0938l.0937-.0625.2188-.1563.0625-.0937.0937-.125,1.0938-.5625.0937-.0313h.125l.3125.0313h.0625l.0625-.0313.0625-.0312.0938-.0938.1875-.1875.2187-.2187.0938-.0313.125-.0312.4062-.0313.3125-.125.1563-.0937.0312-.0625.0313-.0313.0312-.0312.125-.4063.0625-.0312.125-.0938.3125-.2812.0625-.0625.0625-.0313h.0625l.125.0313.1563.1562.0625.0938.0312.0937v.1875l.0313.0313.0312.0625.0313.0312.0312.0313.125.0625h.0938l.0937-.0313.0938-.0625.0625-.0625v-.1562l.0312-.0313.0313-.0625.0312-.0312h.125l.2188.25.0937.0625.9063.375.0937.0312h.0625l.1563-.0625h.1562l.25-.0937.0625-.0625.0938-.125.0625-.0313h.0625l.125-.0312.1875.0312.2187.0313.25.125L383.49,181l.5312.0313h.7188l.0625.0312.0937.0625h.1563l.0937-.0312.125-.125.2188-.3438.0937-.0312.0313-.0313.0312-.0625.0625-.0937.0313-.125.125-.1875h.25l.125.0312.7812-.2187h.125l.2813.0937.2812-.125.7813-.625c-.1075-.2031-.1709-.5684-.3125-.6562-.5547-.3428-.67-1.75-.4688-3.5.2607-1.6089,1.1445-3.2579.5-4.4375-.2715-.4976-2.22,2.0864-3.0937,0-.4873-1.1641-.5372-2.2188-.125-2.375a.731.731,0,0,0,.25-1.125c-.8975-1.4517-1.99-10.2559-1.4375-15.2813.1523-1.3833,1.3076-2.3267,1.5625-2.9375a10.0967,10.0967,0,0,0,.7187-4.0312c-.0459-1.5948-.5156-2.8438-1.3125-2.8438-.4209,0-.874.9126-.5937,2.0313.3789,1.51.4189,2.2617-.8438,2.9375-2.5859,1.3837-3.4492,1.1181-4.5625-1.4063a17.3568,17.3568,0,0,0-3.3125-4.5312c-1.2793-1.2266-2.3437-2.7784-2.3437-3.4688,0-1.34-2.2217-2.6763-5.0625-3.0312-.4629-.0577-.7793-.3716-.6875-.7188.2949-1.1152-1.0645-4.4228-1.875-4.5312-.4317-.0577-1.2657-.1612-1.8438-.2188-.6621-.0664-1.2041-1.9712-1.4687-5.1875-.2715-3.2954.4179-4.3642-.5313-5.3125-.9316-.9307-2.8437-1.4287-2.8437-.8125,0,1.8355-.44,2.03-2.4688-.8125-1.7754-2.4863-2.9092-2.0293-3.0625-.5937-.126,1.1855.1963,2.0937-.2187,2.0937-1.3487,0-2.709-2.2954-3.2188-5.4375-.6631-4.084-4.7832-7.3408-5.875-11.125-.4228-1.4678-.7217-1.2563-.7812-2.75-.0538-1.35,1.2832-.8037-1.0938-3.4062-1.4443-1.5811-2.9619-.8882-4.1562-1.9688a5.1339,5.1339,0,0,0-2.5-1.375.9806.9806,0,0,1-1-.9375c0-.5122-.52-.7441-1.1563-.5-.6807.2612-1.5478-.3642-2.0937-1.5625a3.3311,3.3311,0,0,0-2.5625-2.0625,2.8539,2.8539,0,0,1-2.1875-.8437c-.2911-.47-2.5811-2.2735-3.375-1.9688-2.3135.8882-3.7813-1.3491-3.7813-5.7812,0-3.4312-.2187-1.0928-1.2812-3.6875-.4307-1.0513-1.2227.0053-.8125-2.2188a14.1861,14.1861,0,0,0-.7813-6.3125c-.6982-1.9663-1.08-3.5625-.8437-3.5625s-.5352-.8613-1.75-1.9062c-1.6866-1.45-2.5049-3.3067-3.375-7.875a40.7889,40.7889,0,0,1-.875-8.125c.1806-1.65-.5284-2.6954-3.0313-4.5313-1.7861-1.31-3.4687-3.2588-3.75-4.3125-.4062-1.52-1.3574-2.1421-2.2812-1.375-.8956.7432-1.0918-.041-1.5938,1-1.5185,3.1494-3.81,2.3672-4.9687-1.6875a17.7348,17.7348,0,0,1-.875-4.2812c.5175-2.0977-1.7706-10.3882-3.3438-12.0625-1.5215-1.62-.6728-1.7945-.6875-3.25a5.6594,5.6594,0,0,0-.75-1.7813c-.4775-.918-1.8672-1.1191-1.9375-1.875a20.6434,20.6434,0,0,0-.3125-2.1875,21.1356,21.1356,0,0,1-.2812-2.625C285.5871,3.3516,281.83,0,279.9582,0Z" transform="translate(0.4 0.4)" fill="#fff" stroke="#fff" stroke-linejoin="round" stroke-width="0.8"/></g></svg>
