<svg id="genuss" xmlns="http://www.w3.org/2000/svg" xmlns:xlink="http://www.w3.org/1999/xlink" viewBox="0 0 200 200"><defs><clipPath id="clip-path"><circle id="ellipse" cx="100" cy="100" r="100" fill="none"/></clipPath></defs><title>map-genuss</title><g id="genuss-2" data-name="genuss"><g clip-path="url(#clip-path)"><circle id="ellipse-2" data-name="ellipse" cx="100" cy="100" r="100" fill="#bbb9a6"/><g id="cutlery"><path d="M156.0156,128.8112c21.7637-2.1985,36.9086-20.4176,38.6729-44.68a146.6938,146.6938,0,0,0,.2656-15.563,99.4333,99.4333,0,0,0-7.5485-17.1736c.2136,2.3764.397,4.7565.5431,7.112H115.16a215.638,215.638,0,0,1,3.7055-29.4H113.561c-4.2865,18.2084-6.4061,37.8421-5.1518,55.0249,1.7857,24.2568,16.92,42.481,38.6889,44.68V188.23a99.9894,99.9894,0,0,0,8.9175-5.381Zm-41-45.1739a197.007,197.007,0,0,1,.1446-25.13h72.7889a197.0747,197.0747,0,0,1,.1395,25.1406c-1.6962,23.1784-16.3783,35.4437-36.53,35.4437h-.0024C131.4039,119.0915,116.7169,106.8262,115.0151,83.6373Z" fill="#e8ece7"/><path d="M170.5238,29.1068H118.8652a215.638,215.638,0,0,0-3.7055,29.4h72.789c-.1461-2.3555-.3295-4.7356-.5431-7.112A100.3579,100.3579,0,0,0,170.5238,29.1068Z" fill="#e8ece7"/><path d="M188.0881,83.6478a197.0747,197.0747,0,0,0-.1395-25.1406H115.16a197.007,197.007,0,0,0-.1446,25.13c1.7018,23.1889,16.3888,35.4542,36.54,35.4542h.0024C171.71,119.0915,186.3919,106.8262,188.0881,83.6478Z" fill="#db6e61"/><path d="M52.4249,110.4c2.18-1.6537,5.3819-5.9018,5.3819-10.2514,0-10.6175-2.9905-47.91-2.9905-47.91-.2624-4.34-1.2262-7.8943-2.1422-7.8943-.9126,0-2.143,3.5573-2.143,7.9006l.4073,30.4891c0,3.7932-1.2954,3.9773-2.1632,3.96-.1372,0-.2568-.007-.3591-.007H47.89c-.0994,0-.2253.007-.3793.0105-.9294.0343-2.4573-.0994-2.4573-3.8751l-.5773-30.578c0-4.3433-1.3122-7.9006-2.5461-7.9006-1.2366,0-2.4873,3.5573-2.4873,7.9006l-.6081,30.4891c0,3.7932-1.33,3.9773-2.2116,3.96-.1294,0-.2561-.007-.352-.007s-.2254.007-.3618.007c-.8986.0168-2.3137-.1673-2.3137-3.96l.14-30.4891c0-4.3433-1.3494-7.9006-2.255-7.9006-.9091,0-1.8763,3.5538-2.1395,7.8943,0,0-2.99,36.9194-2.99,47.91,0,4.3468,3.2018,8.5977,5.3854,10.2514,1.9406,1.47,5.792,7.3471,5.7066,11.69L36.29,177.08a100.31,100.31,0,0,0,11.7523,8.3779L46.7176,122.09C46.6288,117.7468,50.4765,111.8694,52.4249,110.4Z" fill="#e8ece7"/><path d="M75.3174,116.5345c-8.4437,5.9768-15.972,15.2442-15.972,29.6549,0,19.0164,14.2294,37.34,25.66,37.34,10.8092,0,25.674-18.3236,25.674-37.34,0-14.4107-7.5283-23.6781-15.9755-29.6549-2.3648-1.6782-5.1328-7.1832-5.0543-11.0891L91.8535.3317A99.8591,99.8591,0,0,0,78.2144,2.3869l2.1574,103.0585C80.4537,109.3513,77.6858,114.8563,75.3174,116.5345Z" fill="#e8ece7"/></g></g></g></svg>