<svg id="abenteuer" xmlns="http://www.w3.org/2000/svg" viewBox="0 0 200 200"><title>map-abenteuer</title><g id="footsteps"><circle id="bg-ellipse" cx="100" cy="100" r="100" fill="#d1e3e8"/><path id="footprints" d="M200,100A100,100,0,0,0,100,0c-3.0786,0-6.1224.1468-9.13.4191.0891,1.2115.17,2.4241.2252,3.6352a.8188.8188,0,0,1-.95.8465L76.7864,2.7144a99.1952,99.1952,0,0,0-11.009,3.297,2.4944,2.4944,0,0,1,.1309.7186q.0508,2.5317-.014,5.1969a2.5113,2.5113,0,0,1-1.872,2.3639L51.1164,17.6919a2.5134,2.5134,0,0,1-2.0048-.32l-2.7523-1.7794q-2.05,1.3056-4.0317,2.7066l6.1067,3.9478a2.2682,2.2682,0,0,0,1.81.2885l12.1945-3.2135a2.27,2.27,0,0,1,2.8352,2.4248q-.073.7286-.1548,1.4624-.3006,2.7008-.6969,5.3068a2.2645,2.2645,0,0,1-1.664,1.8475L49.2769,33.9164a2.2686,2.2686,0,0,1-1.81-.2885L37.0375,26.8854a2.2653,2.2653,0,0,1-1.0312-2.0719c.0445-.5907.1146-1.1984.1676-1.795A100.6052,100.6052,0,0,0,23.0865,36.0934l5.6644.7515a1.0274,1.0274,0,0,1,.879.8488q.2973,1.7789.6616,3.6364a1.0293,1.0293,0,0,1-.8768,1.2185L17.0342,44.1561a100.0135,100.0135,0,0,0,77.987,155.72,1.6494,1.6494,0,0,1,1.6332-1.5262l12.35-.0687a1.653,1.653,0,0,1,1.3893.7429l.27.4093q2.9321-.3108,5.8111-.7921l1-4.6a3.1432,3.1432,0,0,1,3.8647-2.3736l10.7567,2.8056a3.0718,3.0718,0,0,1,.3628.1359A99.4143,99.4143,0,0,0,146.24,188.683l1.5742-1.7076a1.6531,1.6531,0,0,1,1.5981-.4878l.5773.1372q2.3727-1.3722,4.6592-2.8724l-4.89-1.1962a1.6537,1.6537,0,0,1-1.203-1.1733l-.9854-3.6319a1.6532,1.6532,0,0,1,.38-1.5537l2.5508-2.7671a1.6538,1.6538,0,0,1,1.6087-.4853l11.5391,2.8229a1.6457,1.6457,0,0,1,.9088.595A99.7761,99.7761,0,0,0,200,100Zm-23.7929,43.9291c-.8309,2.0185-1.6811,4.0621-2.5338,6.135a1.8749,1.8749,0,0,1-2.4653,1.0137l-15.2187-6.451a1.8746,1.8746,0,0,1-1.0016-2.44l.8513-2.0656a1.874,1.874,0,0,1,1.9943-1.142l16.9017,2.38A1.8743,1.8743,0,0,1,176.2071,143.9291ZM144.2149,75.48a2.472,2.472,0,0,0,1.9968.0208l6.2119-2.6658a2.4714,2.4714,0,0,1,3.3636,1.6339c.3672,1.38.7,2.8461.9974,4.39A2.4688,2.4688,0,0,1,155.33,81.59l-9.0147,3.8687a2.4714,2.4714,0,0,1-1.9967-.0207l-9.2149-4.1835a2.4726,2.4726,0,0,1-1.3432-2.97q.6437-2.1205,1.357-4.0289a2.4733,2.4733,0,0,1,3.3393-1.3895Zm-4.5322-10.1566c2.105-2.8449,4.3834-4.3827,6.693-4.2493,2.0576.1188,3.938,1.5524,5.5711,4.0334a2.4141,2.4141,0,0,1-1.0757,3.5384l-4.63,1.9872a2.419,2.419,0,0,1-1.9537-.02l-3.6525-1.6582A2.4157,2.4157,0,0,1,139.6827,65.3231ZM134.9312,86.076l9.3205,4.2316a2.5137,2.5137,0,0,0,2.03.0211l8.3217-3.5714A2.5141,2.5141,0,0,1,158.1,88.874q.2046,2.6043.2933,5.361a2.5142,2.5142,0,0,1-1.5212,2.39l-10.6756,4.5815a2.5129,2.5129,0,0,1-2.03-.0212l-12.1527-5.5174a2.5113,2.5113,0,0,1-1.4492-2.6443q.3819-2.6346.8579-5.1256A2.5142,2.5142,0,0,1,134.9312,86.076Zm-2.2,14.8177,11.4828,5.2131a2.2684,2.2684,0,0,0,1.8326.0192l9.103-3.9066a2.2679,2.2679,0,0,1,3.1613,2.1848q-.0357.7641-.08,1.5343-.1407,2.4364-.3628,4.8017a2.2657,2.2657,0,0,1-1.364,1.87l-11.4127,4.8978a2.2684,2.2684,0,0,1-1.8326-.0191l-12.6944-5.7632a2.2647,2.2647,0,0,1-1.3306-2.1q.0476-2.6329.2029-5.3486.0426-.737.0927-1.4676A2.27,2.27,0,0,1,132.7315,100.8937Zm.58,16.9786,9.7249,4.4152a2.696,2.696,0,0,0,2.1779.0227l7.352-3.1552a2.6971,2.6971,0,0,1,3.7132,2.98c-.577,3.0514-1.2539,5.9264-2.0136,8.58a2.694,2.694,0,0,1-1.5285,1.7333l-10.71,4.5962a2.696,2.696,0,0,1-2.1781-.0227l-7.3587-3.3407a2.69,2.69,0,0,1-1.5288-1.924,91.7368,91.7368,0,0,1-1.4555-11.2416A2.6965,2.6965,0,0,1,133.3117,117.8723Zm49.5467,7.9489c-.7861,2.7142-1.7178,5.4549-2.7461,8.2335a1.03,1.03,0,0,1-1.2676.6281L161.3923,129.33a1.03,1.03,0,0,1-.66-1.3485q.6684-1.77,1.2621-3.4738a1.0275,1.0275,0,0,1,1.009-.6894l18.9033.6923A1.0281,1.0281,0,0,1,182.8584,125.8212Zm2.0134-8.9651a1.7444,1.7444,0,0,1-2.0629,1.4524L166.31,115.0438a1.74,1.74,0,0,1-1.3915-1.924q.1405-1.0939.1986-2.1442a1.74,1.74,0,0,1,1.6253-1.6376l16.8328-1.1071a1.7447,1.7447,0,0,1,1.858,1.757A48.6533,48.6533,0,0,1,184.8718,116.8561Zm.5265-23.5387c.1421,2.2036.2092,4.2359.2312,6.0362a2,2,0,0,1-2.1916,2.0128L167.119,99.799a2.0011,2.0011,0,0,1-1.8082-1.9331q-.0238-.788-.0629-1.6319a2.0006,2.0006,0,0,1,1.6688-2.0677l16.156-2.6946A2.0011,2.0011,0,0,1,185.3983,93.3174Zm-2.3364-16.3922c.5674,2.4645,1.0155,4.897,1.3675,7.2493a1.4315,1.4315,0,0,1-1.373,1.6406l-17.5548.543a1.43,1.43,0,0,1-1.454-1.18q-.2277-1.2952-.5076-2.6125a1.4309,1.4309,0,0,1,.9886-1.6678l16.724-5.026A1.4339,1.4339,0,0,1,183.0619,76.9252Zm-4.8671-14.4521a65.5043,65.5043,0,0,1,2.48,6.1226,1.7066,1.7066,0,0,1-1.5279,2.2659l-17.8356.877a1.7074,1.7074,0,0,1-1.6246-.9726q-.3837-.804-.7908-1.5628a1.7038,1.7038,0,0,1,.9859-2.4247l16.2467-5.207A1.7061,1.7061,0,0,1,178.1948,62.4731Zm-9.32-13.7309a44.2433,44.2433,0,0,1,4.4521,5.321,1.6052,1.6052,0,0,1-.7032,2.4149l-16.5261,6.7694a1.6031,1.6031,0,0,1-1.7466-.3526q-.6955-.7026-1.4357-1.3184a1.6068,1.6068,0,0,1,.0535-2.5155l13.7848-10.4744A1.609,1.609,0,0,1,168.8749,48.7422Zm-11.96-8.3717a39.531,39.531,0,0,1,5.9386,3.3323,1.36,1.36,0,0,1,.2145,2.0673L150.5421,58.7629a1.3645,1.3645,0,0,1-1.5779.2759l-.0268-.0128a1.362,1.362,0,0,1-.672-1.7568l6.834-16.1906A1.36,1.36,0,0,1,156.9152,40.3705Zm-14.9825-3.3837a25.6963,25.6963,0,0,1,7.8133.893c.8849.2088.93.822.8935,1.422l-3.98,18.2909a.4328.4328,0,0,1-.5532.32,17.3265,17.3265,0,0,0-1.686-.4447.4317.4317,0,0,1-.3391-.3573l-2.95-19.1911C140.9741,37.2255,141.673,36.9957,141.9327,36.9868ZM128.3737,41.21a25.38,25.38,0,0,1,6.2808-3.0609,1.2925,1.2925,0,0,1,1.61.7867l6.0944,16.6688a1.2936,1.2936,0,0,1-.9716,1.7126l-.0217.0042a1.282,1.282,0,0,1-1.2149-.4186L128.1193,43.1346A1.2923,1.2923,0,0,1,128.3737,41.21ZM118.38,51.6624a44.0487,44.0487,0,0,1,3.9264-5.1229,1.7928,1.7928,0,0,1,2.5618-.1107L137.046,57.86a1.7888,1.7888,0,0,1,.1338,2.4731c-.3348.3871-.69.8293-1.0619,1.3334a1.7892,1.7892,0,0,1-2.2859.5083l-14.8029-7.9476A1.7915,1.7915,0,0,1,118.38,51.6624ZM111.1429,66.55a82.4062,82.4062,0,0,1,3.2135-7.7284,1.0245,1.0245,0,0,1,1.3216-.4989l16.8237,7.0951a1.0255,1.0255,0,0,1,.5164,1.4061l-.0052.01q-.7242,1.4453-1.403,3.0394a1.0255,1.0255,0,0,1-1.0841.6151L111.9671,67.91A1.0244,1.0244,0,0,1,111.1429,66.55Zm-2.0087,6.2025a.8188.8188,0,0,1,1.0024-.5628L128.12,77.1147a.8175.8175,0,0,1,.5686,1.0193q-.4838,1.6474-.929,3.3912l-.0016.0063a.8194.8194,0,0,1-.7985.6184l-19.124-.12a.8188.8188,0,0,1-.7941-.9938C107.6464,78.2554,108.3416,75.48,109.1342,72.7527Zm-1.2665,56.4928L125.95,130.44a1.6469,1.6469,0,0,1,1.4656,1.16q.2191.7115.438,1.441a1.6477,1.6477,0,0,1-1.2349,2.0848l-16.678,3.5424a1.6462,1.6462,0,0,1-1.9156-1.125c-.5921-1.9219-1.2423-3.9578-1.8558-6.2249A1.647,1.647,0,0,1,107.8677,129.2455Zm-3.4461-7.2-.5609-6.5557a1.8535,1.8535,0,0,1,1.9247-2.01l17.5262.74a.7373.7373,0,0,1,.7045.704c.0639,1.3921.1722,2.6816.3166,3.8921a.971.971,0,0,1-.7538,1.0627l-16.9685,3.774A1.8038,1.8038,0,0,1,104.4216,122.0454Zm.56-29.191c.2727-2.0449.5913-4.1208.9583-6.21a1.7842,1.7842,0,0,1,2.0457-1.455l16.4985,2.715a1.7822,1.7822,0,0,1,1.4651,2.0691q-.1521.8612-.291,1.7164a1.7845,1.7845,0,0,1-1.5856,1.4919l-17.15,1.6848A1.7831,1.7831,0,0,1,104.9819,92.8544Zm-.834,7.7217a1.77,1.77,0,0,1,1.9623-1.6115l16.6528,1.8838a1.769,1.769,0,0,1,1.5645,1.8964q-.0755.956-.135,1.88a1.7705,1.7705,0,0,1-1.504,1.6387L105.7891,108.79a1.7684,1.7684,0,0,1-2.03-1.8136C103.8372,104.9326,103.965,102.79,104.1479,100.5761Zm-.436,56.19c.7254-2.1469,1.5133-4.2539,2.3509-6.3036a1.656,1.656,0,0,1,1.9323-.9833l13.0579,3.2529a1.6534,1.6534,0,0,1,1.198,1.1783l.97,3.636a1.654,1.654,0,0,1-.3866,1.5524l-2.5626,2.7561a1.6532,1.6532,0,0,1-1.6106.4785l-13.782-3.433A1.6544,1.6544,0,0,1,103.7119,156.7662ZM64.1688,49.5876l18.0266,1.8548a1.647,1.647,0,0,1,1.3267,2.3282c-.9851,2.1321-1.9675,4.03-2.8735,5.8255a1.6461,1.6461,0,0,1-2.0771.7878L62.7238,54.0946a1.6477,1.6477,0,0,1-.8678-2.2624q.3375-.683.6735-1.3472A1.6471,1.6471,0,0,1,64.1688,49.5876Zm.1683,39.022,1.5662-3.4219a1.6534,1.6534,0,0,1,1.3787-.9606L80.7,83.21a1.6557,1.6557,0,0,1,1.74,1.2935c.4821,2.1611.9054,4.37,1.2605,6.6085A1.6542,1.6542,0,0,1,82.1921,93.02L68.03,94.0934a1.653,1.653,0,0,1-1.5076-.7418l-2.0641-3.1468A1.6543,1.6543,0,0,1,64.3371,88.61ZM62.4338,78.3629a1.654,1.654,0,0,1-.1208-1.5952l1.5662-3.4219a1.6539,1.6539,0,0,1,1.3787-.9607l13.4184-1.0168a1.6559,1.6559,0,0,1,1.74,1.2934c.482,2.1612.9053,4.3705,1.2605,6.6086a1.6543,1.6543,0,0,1-1.5089,1.9082l-14.1626,1.073a1.6531,1.6531,0,0,1-1.5075-.7418Zm-17.6753,12.9,12.6653-1.12a3.2177,3.2177,0,0,1,3.4977,3.0586l.4641,10.1711a3.1433,3.1433,0,0,1-2.868,3.2746L46.565,107.686a3.1432,3.1432,0,0,1-3.3883-2.7215L41.8516,94.8882A3.2178,3.2178,0,0,1,44.7585,91.2633ZM41.6763,76.8927a4.305,4.305,0,0,1-2.3829-3.3087L38.27,65.8028a3.2008,3.2008,0,0,1,.2543-1.7377,2.4975,2.4975,0,0,1,3.8769-.8641l4.4435,3.7136a1.9563,1.9563,0,0,0,2.8152-.3217l3.1205-4.1295a2.5,2.5,0,0,1,4.221.3546,3.206,3.206,0,0,1,.3386,1.2989l.3672,8.05a4.3046,4.3046,0,0,1-1.5268,3.4884l-4.7154,3.972a3.0738,3.0738,0,0,1-3.3264.4126ZM47.37,111.6834l11.0749-.9618a3.1431,3.1431,0,0,1,3.4118,2.9881l.2725,5.9713-.0191.0017c.16,3.9416-3.3153,7.3371-7.774,7.7312s-8.4757-2.3388-9.01-6.2472l-.019.0016-.7817-5.9437A3.1431,3.1431,0,0,1,47.37,111.6834Zm-7.5485-77.685,6.7187,4.3435a2.6959,2.6959,0,0,0,2.1509.3429l10.3277-2.7217a2.6965,2.6965,0,0,1,3.3078,3.2438,91.7791,91.7791,0,0,1-3.32,10.8383,2.69,2.69,0,0,1-1.83,1.64l-7.8147,2.0593a2.6965,2.6965,0,0,1-2.1511-.3429l-9.7873-6.3273a2.6944,2.6944,0,0,1-1.2162-1.965c-.3038-2.7436-.489-5.6914-.546-8.7964A2.6971,2.6971,0,0,1,39.8219,33.9984ZM34.9781,80.7706l-1.5806,3.4153a1.6536,1.6536,0,0,1-1.3827.9549l-12.3913.8864a1.6549,1.6549,0,0,1-1.7716-1.6258c-.0376-2.2279-.0128-4.4654.0729-6.7A1.6526,1.6526,0,0,1,19.46,76.119l11.8491-.8478a1.654,1.654,0,0,1,1.5045.7483l2.0506,3.1557A1.6532,1.6532,0,0,1,34.9781,80.7706ZM13.83,60.93c-.493-2.1866-.9884-4.3438-1.469-6.4731A1.8744,1.8744,0,0,1,14.2435,52.17l17.0616.4881a1.874,1.874,0,0,1,1.7744,1.46l.4928,2.1791a1.8744,1.8744,0,0,1-1.3966,2.2374l-16.085,3.8074A1.8749,1.8749,0,0,1,13.83,60.93Zm4.0366,28.6035a1.6526,1.6526,0,0,1,1.5348-1.5827l11.8492-.8477a1.6537,1.6537,0,0,1,1.5045.7482l2.0506,3.1557a1.6533,1.6533,0,0,1,.1143,1.5955L33.34,96.0176a1.6533,1.6533,0,0,1-1.3827.9549l-12.3912.8864a1.6547,1.6547,0,0,1-1.7716-1.6257C17.7565,94.0052,17.7812,91.7677,17.8669,89.5334Zm.7663,18.76q-.2991-2.3874-.4926-4.8236a1.6557,1.6557,0,0,1,1.5409-1.7868l11.9578-.7769a1.6535,1.6535,0,0,1,1.4937.749l1.4912,2.2948a1.6536,1.6536,0,0,1,.1142,1.5955l-1.1433,2.47a1.6531,1.6531,0,0,1-1.3936.9556l-11.82.7681A1.6546,1.6546,0,0,1,18.6332,108.2936Zm2.6375,13.2593q-.6549-2.314-1.184-4.7347a1.6554,1.6554,0,0,1,1.1759-1.9511l11.134-3.0677a1.6538,1.6538,0,0,1,1.6146.4308l1.9251,1.9453a1.6534,1.6534,0,0,1,.4351,1.5393l-.6193,2.6506a1.6533,1.6533,0,0,1-1.1709,1.2181L23.3,122.692A1.6519,1.6519,0,0,1,21.2707,121.5529Zm4.0012,10.6238q-.9541-1.944-1.783-4.0361a1.656,1.656,0,0,1,1.013-2.1851L35.01,122.46a1.6534,1.6534,0,0,1,1.5514.2751l1.4114,1.1226a1.6542,1.6542,0,0,1,.6151,1.4676l-.1841,1.7433a1.6533,1.6533,0,0,1-.9605,1.3321l-10.0065,4.5456A1.6508,1.6508,0,0,1,25.2719,132.1767Zm6.89,10.1353a34.1527,34.1527,0,0,1-2.5914-3.0563,1.6567,1.6567,0,0,1,.366-2.3556l9.0886-6.3777a1.6537,1.6537,0,0,1,1.42-.2316l1.2635.3748a1.6538,1.6538,0,0,1,1.1689,1.3667l.1684,1.2635a1.6542,1.6542,0,0,1-.4989,1.4161l-8.0452,7.6595A1.6569,1.6569,0,0,1,32.1618,142.312Zm16.5033-6.9729-2.4363,12.97a1.6507,1.6507,0,0,1-2.0371,1.2965,24.0112,24.0112,0,0,1-3.3558-1.1565,1.6545,1.6545,0,0,1-.8476-2.2184l5.5439-11.9063A1.6536,1.6536,0,0,1,48.3309,134l.0086.0109A1.6541,1.6541,0,0,1,48.6651,135.3391Zm7.2369,14.6657a32.2369,32.2369,0,0,1-3.6369.3966,1.6511,1.6511,0,0,1-1.72-1.8017l1.2561-13.8344a1.6533,1.6533,0,0,1,2.5238-1.2524l.0117.0072a1.6544,1.6544,0,0,1,.7558,1.1392l2.1647,13.4525A1.651,1.651,0,0,1,55.902,150.0048Zm11.9987-4.3409a30.3706,30.3706,0,0,1-3.1865,1.69,1.6552,1.6552,0,0,1-2.2407-.9263l-4.7594-12.7962a1.6536,1.6536,0,0,1,1.7354-2.22l.0136.0014a1.6543,1.6543,0,0,1,1.1737.7011L68.3981,143.31A1.6536,1.6536,0,0,1,67.9007,145.6639Zm10.4578-10.7425a33.8839,33.8839,0,0,1-2.3931,3.5173,1.6519,1.6519,0,0,1-2.2543.3314l-10.1825-7.1739a1.6544,1.6544,0,0,1-.7011-1.3278l-.0184-1.2744a1.6534,1.6534,0,0,1,.9558-1.5233l1.1949-.5561a1.6539,1.6539,0,0,1,1.4389.0211l11.2821,5.6579A1.656,1.656,0,0,1,78.3585,134.9214Zm4.6178-11.4337q-.5736,2.2373-1.33,4.3648a1.6556,1.6556,0,0,1-2.0152,1.0379L67.96,125.543a1.6538,1.6538,0,0,1-1.1454-1.1768l-.4374-1.6976a1.6528,1.6528,0,0,1,.3933-1.5417l1.2317-1.3178a1.6529,1.6529,0,0,1,1.4943-.4993L81.66,121.4487A1.6539,1.6539,0,0,1,82.9763,123.4877Zm1.2545-6.3752a1.652,1.652,0,0,1-1.8376,1.4032L68.7468,116.845a1.6537,1.6537,0,0,1-1.3369-1.0333L66.409,113.28a1.6541,1.6541,0,0,1,.2046-1.5864l1.62-2.2063a1.6537,1.6537,0,0,1,1.5339-.6629L83.3,110.4815a1.653,1.653,0,0,1,1.4489,1.7576Q84.5716,114.7055,84.2308,117.1125ZM83.3743,104.86l-13.8285,1.139a1.6541,1.6541,0,0,1-1.5185-.741l-1.4929-2.2762a1.6541,1.6541,0,0,1-.1209-1.5952l1.1389-2.4886a1.6535,1.6535,0,0,1,1.3679-.96L82.8041,96.795a1.654,1.654,0,0,1,1.7836,1.504q.2129,2.4222.3038,4.85A1.6546,1.6546,0,0,1,83.3743,104.86Zm5.0783-66.3066L86.8,44.9222a1.8038,1.8038,0,0,1-2.4273,1.2171L68.2776,39.5729a.9708.9708,0,0,1-.5648-1.174c.3454-1.1691.6684-2.4222.9648-3.784a.7374.7374,0,0,1,.8126-.5758l17.402,2.21A1.8535,1.8535,0,0,1,88.4526,38.5535ZM89.98,30.1773a1.7683,1.7683,0,0,1-2.3051,1.4475L71.4388,26.3005a1.77,1.77,0,0,1-1.2079-1.8677q.0961-.9206.1822-1.8762a1.7688,1.7688,0,0,1,1.86-1.6071l16.7328.9356a1.77,1.77,0,0,1,1.6643,1.9178C90.48,26.0163,90.2463,28.15,89.98,30.1773Zm1.1631-14.1266a1.7832,1.7832,0,0,1-2.2507,1.6583L72.2679,13.1718a1.7848,1.7848,0,0,1-1.3129-1.7367q.0066-.8663.001-1.7409A1.7822,1.7822,0,0,1,72.7473,7.9l16.72.09A1.7843,1.7843,0,0,1,91.24,9.7679C91.2516,11.8892,91.2175,13.9891,91.1434,16.0507ZM113.06,192.855l-1.4113,2.3277a1.6534,1.6534,0,0,1-1.4912.7945l-13.7333-.6416a1.652,1.652,0,0,1-1.5763-1.6914q.0654-2.427.3065-4.8914a1.653,1.653,0,0,1,1.7231-1.49l13.6193.6363a1.6531,1.6531,0,0,1,1.401.9107l1.2266,2.4466A1.654,1.654,0,0,1,113.06,192.855Zm1.6035-10.1735-1.8535,1.9936a1.654,1.654,0,0,1-1.6212.4758l-13.4417-3.442a1.6547,1.6547,0,0,1-1.2088-1.941q.4947-2.3752,1.113-4.7307a1.6542,1.6542,0,0,1,2.0106-1.1836l13.4954,3.4557a1.6534,1.6534,0,0,1,1.1875,1.1754l.7055,2.6445A1.654,1.654,0,0,1,114.6631,182.6815Zm4.19-12.2479-2.5626,2.7561a1.653,1.653,0,0,1-1.6106.4785l-13.782-3.433a1.6543,1.6543,0,0,1-1.1675-2.1343c.7255-2.1469,1.5133-4.2539,2.351-6.3035a1.6559,1.6559,0,0,1,1.9323-.9834l13.0578,3.2529a1.6537,1.6537,0,0,1,1.1981,1.1783l.97,3.636A1.6538,1.6538,0,0,1,118.8531,170.4336Zm21.5007,8.4084-2.9963,9.7113a3.1431,3.1431,0,0,1-3.7967,2.1147L121.9515,187.64a3.1431,3.1431,0,0,1-2.2781-3.7092l2.1633-9.9491a3.2178,3.2178,0,0,1,3.9612-2.4288l12.298,3.2279A3.2178,3.2178,0,0,1,140.3538,178.842Zm8.4086-28.0728-2.3138,7.4993a4.3044,4.3044,0,0,1-2.904,2.8622l-6.8987,2.0192a3.0738,3.0738,0,0,1-3.21-.9647l-3.9824-4.7065a4.3049,4.3049,0,0,1-.92-3.695l1.7122-7.8748a3.2062,3.2062,0,0,1,.5516-1.2237,2.5,2.5,0,0,1,4.2207.3583l2.3838,4.5944a1.9562,1.9562,0,0,0,2.7213.7893l5.0034-2.9158a2.4975,2.4975,0,0,1,3.6771,1.5021A3.2014,3.2014,0,0,1,148.7624,150.7692Zm18.0616,15.1425c-.29,2.217-.6411,4.427-1.0518,6.617a1.6548,1.6548,0,0,1-2.0191,1.3057l-12.0671-2.952a1.6537,1.6537,0,0,1-1.203-1.1733l-.9855-3.632a1.6537,1.6537,0,0,1,.38-1.5537l2.5509-2.7671a1.6535,1.6535,0,0,1,1.6086-.4852l11.5392,2.8228A1.6528,1.6528,0,0,1,166.824,165.9117Z" fill="#89a7b6"/></g></svg>